{
  "accessors": [
    {
      "bufferView": 2,
      "componentType": 5126,
      "count": 1884,
      "max": [
        0.6131817102432251,
        0.153823584318161,
        2.1284141540527344
      ],
      "min": [
        -0.6131817102432251,
        -0.2968432605266571,
        -0.0076656341552734375
      ],
      "type": "VEC3"
    },
    {
      "bufferView": 2,
      "byteOffset": 22608,
      "componentType": 5126,
      "count": 1884,
      "max": [
        1.0,
        0.9988556504249573,
        0.9779154658317566
      ],
      "min": [
        -1.0,
        -0.9988555908203125,
        -1.0
      ],
      "type": "VEC3"
    },
    {
      "bufferView": 1,
      "componentType": 5126,
      "count": 1884,
      "max": [
        0.7066613435745239,
        0.8729838728904724
      ],
      "min": [
        0.19354835152626038,
        0.19153225421905518
      ],
      "type": "VEC2"
    },
    {
      "bufferView": 0,
      "componentType": 5125,
      "count": 2796,
      "type": "SCALAR"
    },
    {
      "bufferView": 2,
      "byteOffset": 45216,
      "componentType": 5126,
      "count": 396,
      "max": [
        0.24515841901302338,
        0.25716379284858704,
        2.288374662399292
      ],
      "min": [
        -0.259274423122406,
        -0.3208456039428711,
        1.7772724628448486
      ],
      "type": "VEC3"
    },
    {
      "bufferView": 2,
      "byteOffset": 49968,
      "componentType": 5126,
      "count": 396,
      "max": [
        0.9998170733451843,
        0.9902174472808838,
        0.9812192320823669
      ],
      "min": [
        -0.9780957102775574,
        -0.9904834032058716,
        -0.9673227667808533
      ],
      "type": "VEC3"
    },
    {
      "bufferView": 1,
      "byteOffset": 15072,
      "componentType": 5126,
      "count": 396,
      "max": [
        0.4923795461654663,
        0.7062852382659912
      ],
      "min": [
        0.49237948656082153,
        0.7062852382659912
      ],
      "type": "VEC2"
    },
    {
      "bufferView": 0,
      "byteOffset": 11184,
      "componentType": 5125,
      "count": 564,
      "type": "SCALAR"
    },
    {
      "bufferView": 2,
      "byteOffset": 54720,
      "componentType": 5126,
      "count": 136,
      "max": [
        0.08881153911352158,
        -0.22516556084156036,
        2.002819538116455
      ],
      "min": [
        -0.08881153911352158,
        -0.23890984058380127,
        1.9519597291946411
      ],
      "type": "VEC3"
    },
    {
      "bufferView": 2,
      "byteOffset": 56352,
      "componentType": 5126,
      "count": 136,
      "max": [
        0.9696248769760132,
        1.0,
        0.8268740773200989
      ],
      "min": [
        -0.9696248769760132,
        -0.9060751795768738,
        -0.8268740773200989
      ],
      "type": "VEC3"
    },
    {
      "bufferView": 1,
      "byteOffset": 18240,
      "componentType": 5126,
      "count": 136,
      "max": [
        0.47119635343551636,
        0.3353785276412964
      ],
      "min": [
        0.47119635343551636,
        0.3353785276412964
      ],
      "type": "VEC2"
    },
    {
      "bufferView": 0,
      "byteOffset": 13440,
      "componentType": 5125,
      "count": 204,
      "type": "SCALAR"
    },
    {
      "bufferView": 2,
      "byteOffset": 57984,
      "componentType": 5126,
      "count": 16,
      "max": [
        0.13460683822631836,
        -0.1756928265094757,
        1.9336283206939697
      ],
      "min": [
        -0.13460683822631836,
        -0.2263357788324356,
        1.8562041521072388
      ],
      "type": "VEC3"
    },
    {
      "bufferView": 2,
      "byteOffset": 58176,
      "componentType": 5126,
      "count": 16,
      "max": [
        0.6347666382789612,
        -0.7673435211181641,
        0.09085864573717117
      ],
      "min": [
        -0.6347661018371582,
        -0.7673439383506775,
        0.0908585861325264
      ],
      "type": "VEC3"
    },
    {
      "bufferView": 1,
      "byteOffset": 19328,
      "componentType": 5126,
      "count": 16,
      "max": [
        0.49279165267944336,
        0.8738160729408264
      ],
      "min": [
        0.49279165267944336,
        0.8738160729408264
      ],
      "type": "VEC2"
    },
    {
      "bufferView": 0,
      "byteOffset": 14256,
      "componentType": 5125,
      "count": 36,
      "type": "SCALAR"
    },
    {
      "bufferView": 2,
      "byteOffset": 58368,
      "componentType": 5126,
      "count": 72,
      "max": [
        0.03009101003408432,
        -0.21891944110393524,
        1.8449267148971558
      ],
      "min": [
        -0.03009101003408432,
        -0.24713103473186493,
        1.835782766342163
      ],
      "type": "VEC3"
    },
    {
      "bufferView": 2,
      "byteOffset": 59232,
      "componentType": 5126,
      "count": 72,
      "max": [
        1.0,
        0.9343222379684448,
        0.9997477531433105
      ],
      "min": [
        -1.0,
        -0.9343222379684448,
        -0.9997477531433105
      ],
      "type": "VEC3"
    },
    {
      "bufferView": 1,
      "byteOffset": 19456,
      "componentType": 5126,
      "count": 72,
      "max": [
        0.4903987944126129,
        0.6856235265731812
      ],
      "min": [
        0.4903987944126129,
        0.6856235265731812
      ],
      "type": "VEC2"
    },
    {
      "bufferView": 0,
      "byteOffset": 14400,
      "componentType": 5125,
      "count": 108,
      "type": "SCALAR"
    }
  ],
  "asset": {
    "extras": {
      "author": "micaelsampaio (https://sketchfab.com/micaelsampaio)",
      "license": "CC-BY-4.0 (http://creativecommons.org/licenses/by/4.0/)",
      "source": "https://sketchfab.com/3d-models/low-poly-little-boy-d984291f35244621abdbbd7527d44b33",
      "title": "Low Poly Little Boy"
    },
    "generator": "Sketchfab-12.68.0",
    "version": "2.0"
  },
  "bufferViews": [
    {
      "buffer": 0,
      "byteLength": 14832,
      "name": "floatBufferViews",
      "target": 34963
    },
    {
      "buffer": 0,
      "byteLength": 20032,
      "byteOffset": 14832,
      "byteStride": 8,
      "name": "floatBufferViews",
      "target": 34962
    },
    {
      "buffer": 0,
      "byteLength": 60096,
      "byteOffset": 34864,
      "byteStride": 12,
      "name": "floatBufferViews",
      "target": 34962
    }
  ],
  "buffers": [
    {
      "byteLength": 94960,
      "uri": "scene.bin"
    }
  ],
  "extensionsUsed": [
    "KHR_materials_unlit"
  ],
  "images": [
    {
      "uri": "textures/Material_baseColor.png"
    }
  ],
  "materials": [
    {
      "doubleSided": true,
      "extensions": {
        "KHR_materials_unlit": {}
      },
      "name": "Material",
      "pbrMetallicRoughness": {
        "baseColorTexture": {
          "index": 0
        },
        "metallicFactor": 0.0
      }
    }
  ],
  "meshes": [
    {
      "name": "Cylinder_Material_0",
      "primitives": [
        {
          "attributes": {
            "NORMAL": 1,
            "POSITION": 0,
            "TEXCOORD_0": 2
          },
          "indices": 3,
          "material": 0,
          "mode": 4
        }
      ]
    },
    {
      "name": "Cube.001_Material_0",
      "primitives": [
        {
          "attributes": {
            "NORMAL": 5,
            "POSITION": 4,
            "TEXCOORD_0": 6
          },
          "indices": 7,
          "material": 0,
          "mode": 4
        }
      ]
    },
    {
      "name": "Cylinder.001_Material_0",
      "primitives": [
        {
          "attributes": {
            "NORMAL": 9,
            "POSITION": 8,
            "TEXCOORD_0": 10
          },
          "indices": 11,
          "material": 0,
          "mode": 4
        }
      ]
    },
    {
      "name": "Circle_Material_0",
      "primitives": [
        {
          "attributes": {
            "NORMAL": 13,
            "POSITION": 12,
            "TEXCOORD_0": 14
          },
          "indices": 15,
          "material": 0,
          "mode": 4
        }
      ]
    },
    {
      "name": "Cube.002_Material_0",
      "primitives": [
        {
          "attributes": {
            "NORMAL": 17,
            "POSITION": 16,
            "TEXCOORD_0": 18
          },
          "indices": 19,
          "material": 0,
          "mode": 4
        }
      ]
    }
  ],
  "nodes": [
    {
      "children": [
        1
      ],
      "matrix": [
        1.0,
        0.0,
        0.0,
        0.0,
        0.0,
        2.220446049250313e-16,
        -1.0,
        0.0,
        0.0,
        1.0,
        2.220446049250313e-16,
        0.0,
        0.0,
        0.0,
        0.0,
        1.0
      ],
      "name": "Sketchfab_model"
    },
    {
      "children": [
        2
      ],
      "matrix": [
        1.0,
        0.0,
        0.0,
        0.0,
        0.0,
        0.0,
        1.0,
        0.0,
        0.0,
        -1.0,
        0.0,
        0.0,
        0.0,
        0.0,
        0.0,
        1.0
      ],
      "name": "b04480b267794ba387f9fe83309526b5.fbx"
    },
    {
      "children": [
        3,
        5,
        7,
        9,
        11
      ],
      "name": "RootNode"
    },
    {
      "children": [
        4
      ],
      "matrix": [
        61.06205749511719,
        0.0,
        0.0,
        0.0,
        0.0,
        -9.948271892167564e-06,
        -61.06205749511638,
        0.0,
        0.0,
        61.06205749511638,
        -9.948271892167564e-06,
        0.0,
        0.0,
        0.0,
        0.0,
        1.0
      ],
      "name": "Cylinder"
    },
    {
      "mesh": 0,
      "name": "Cylinder_Material_0"
    },
    {
      "children": [
        6
      ],
      "matrix": [
        61.06205749511719,
        0.0,
        0.0,
        0.0,
        0.0,
        -9.948271892167564e-06,
        -61.06205749511638,
        0.0,
        0.0,
        61.06205749511638,
        -9.948271892167564e-06,
        0.0,
        0.0,
        0.0,
        0.0,
        1.0
      ],
      "name": "Cube.001"
    },
    {
      "mesh": 1,
      "name": "Cube.001_Material_0"
    },
    {
      "children": [
        8
      ],
      "matrix": [
        61.06205749511719,
        0.0,
        0.0,
        0.0,
        0.0,
        -9.948271892167564e-06,
        -61.06205749511638,
        0.0,
        0.0,
        61.06205749511638,
        -9.948271892167564e-06,
        0.0,
        0.0,
        0.0,
        0.0,
        1.0
      ],
      "name": "Cylinder.001"
    },
    {
      "mesh": 2,
      "name": "Cylinder.001_Material_0"
    },
    {
      "children": [
        10
      ],
      "matrix": [
        61.06205749511719,
        0.0,
        0.0,
        0.0,
        0.0,
        -9.948271892167564e-06,
        -61.06205749511638,
        0.0,
        0.0,
        61.06205749511638,
        -9.948271892167564e-06,
        0.0,
        0.0,
        0.0,
        0.0,
        1.0
      ],
      "name": "Circle"
    },
    {
      "mesh": 3,
      "name": "Circle_Material_0"
    },
    {
      "children": [
        12
      ],
      "matrix": [
        61.06205749511719,
        0.0,
        0.0,
        0.0,
        0.0,
        -9.948271892167564e-06,
        -61.06205749511638,
        0.0,
        0.0,
        61.06205749511638,
        -9.948271892167564e-06,
        0.0,
        0.0,
        0.0,
        0.0,
        1.0
      ],
      "name": "Cube.002"
    },
    {
      "mesh": 4,
      "name": "Cube.002_Material_0"
    }
  ],
  "samplers": [
    {
      "magFilter": 9729,
      "minFilter": 9987,
      "wrapS": 10497,
      "wrapT": 10497
    }
  ],
  "scene": 0,
  "scenes": [
    {
      "name": "Sketchfab_Scene",
      "nodes": [
        0
      ]
    }
  ],
  "textures": [
    {
      "sampler": 0,
      "source": 0
    }
  ]
}
